<?xml version="1.0" encoding="UTF-8"?>
<svg version="1.1" xmlns="http://www.w3.org/2000/svg" width="512" height="512">
<path d="M0 0 C3.23858088 1.43358972 5.90637857 2.56321614 9.36499023 1.37890625 C10.00114258 1.00564209 10.63729492 0.63237793 11.29272461 0.24780273 C12.02547607 -0.16566406 12.75822754 -0.57913086 13.51318359 -1.00512695 C14.29636963 -1.45919922 15.07955566 -1.91327148 15.88647461 -2.38110352 C65.64778963 -29.82829561 128.01908577 -35.02195332 182.48999023 -20.09301758 C206.07508169 -13.09717986 206.07508169 -13.09717986 212.38647461 -1.94360352 C213.09110898 0.50189225 213.27960389 2.49149928 213.38647461 5.05639648 C214.72838867 4.96938477 214.72838867 4.96938477 216.09741211 4.88061523 C225.35465786 4.53519562 232.25560738 5.36379083 239.26147461 11.77124023 C243.42045831 16.34012377 245.63071308 20.72642512 245.64933014 27.00094891 C245.65701243 27.97660453 245.66469472 28.95226014 245.67260981 29.95748109 C245.67087684 31.02167026 245.66914388 32.08585943 245.6673584 33.18229675 C245.67330064 34.31882433 245.67924289 35.4553519 245.6853652 36.62631971 C245.70273922 40.44312953 245.70575567 44.2598139 245.70874023 48.07666016 C245.71692181 50.80991353 245.72800484 53.54315371 245.73883057 56.27639771 C245.76597253 63.70834767 245.77804286 71.14027602 245.78685188 78.57226729 C245.7923811 83.21490863 245.80085662 87.85754166 245.80986023 92.50017738 C245.83424269 105.36017299 245.85484166 118.22016195 245.86161041 131.08018017 C245.86226911 132.31433864 245.86226911 132.31433864 245.86294112 133.5734296 C245.86337767 134.398145 245.86381423 135.22286039 245.86426401 136.07256716 C245.86515094 137.74369061 245.86604406 139.41481406 245.86694336 141.0859375 C245.86760765 142.32933386 245.86760765 142.32933386 245.86828536 143.59784935 C245.87617893 157.02508491 245.91108075 170.45210323 245.9576624 183.8792549 C246.00512658 197.67240149 246.0300158 211.46543916 246.03234625 225.25866872 C246.03417774 232.99998612 246.04563097 240.74102047 246.08198547 248.48225975 C246.11283801 255.07505066 246.12299919 261.66747104 246.10650927 268.26032045 C246.09871297 271.62195884 246.10375313 274.98224726 246.12862396 278.34389305 C246.15404988 281.99509352 246.14231964 285.64439011 246.12145996 289.295578 C246.14562917 290.87513135 246.14562917 290.87513135 246.17028666 292.48659486 C246.07026892 299.98957754 244.02946915 305.14086817 239.38647461 311.05639648 C233.1260056 316.94688359 226.01092858 318.36611605 217.53051758 318.30122375 C216.76993483 318.30348833 216.00935207 318.3057529 215.22572136 318.3080861 C212.6932816 318.31335635 210.16108949 318.30457194 207.62866211 318.29589844 C205.80649741 318.29701202 203.98433309 318.29907092 202.16217041 318.30200195 C198.24605305 318.30671592 194.32999569 318.30561271 190.41387939 318.30022621 C184.21964202 318.29260713 178.02551988 318.30328193 171.83129883 318.31742859 C154.22012877 318.35514338 136.60901139 318.37334909 118.99780273 318.36181641 C109.26530153 318.35560019 99.53298673 318.36717744 89.80053139 318.39826173 C83.64469944 318.41691426 77.48939559 318.41359966 71.33357239 318.39409411 C67.50254926 318.38720977 63.67181224 318.40117424 59.8408432 318.4210434 C58.06674269 318.42608797 56.29259401 318.42261271 54.5185318 318.4099102 C52.09246121 318.39377604 49.66841202 318.40846773 47.24243164 318.43061829 C46.19460416 318.41256204 46.19460416 318.41256204 45.12560844 318.39414102 C40.25666399 318.48451933 37.60698748 319.87073389 33.97041321 322.85830849 C28.92105025 326.67763654 22.3013278 326.36396002 16.26928711 326.35717773 C15.41269501 326.36146286 14.55610291 326.36574799 13.67355347 326.37016296 C11.87002441 326.3758791 10.06647231 326.37642667 8.26293945 326.37207031 C5.52636755 326.36891366 2.79088172 326.39239177 0.05444336 326.41772461 C-1.70727404 326.41999845 -3.46899432 326.4207007 -5.23071289 326.41967773 C-6.03725311 326.42888748 -6.84379333 326.43809723 -7.67477417 326.44758606 C-14.16728709 326.39557633 -20.88409727 325.62851326 -25.77134895 321.02293968 C-29.3071252 318.57648469 -32.06953434 318.49976701 -36.21551514 318.55760193 C-36.97297791 318.55221737 -37.73044068 318.54683282 -38.51085687 318.5412851 C-41.04508491 318.52802709 -43.57834206 318.54315268 -46.11254883 318.55810547 C-47.93117721 318.55428184 -49.74980258 318.54866243 -51.56842041 318.54138184 C-55.48354473 318.52942877 -59.39840088 318.52992269 -63.31352997 318.53997612 C-69.50821072 318.55553697 -75.70261612 318.5418578 -81.89727783 318.52394104 C-93.93437395 318.49311034 -105.9713861 318.49161971 -118.0085144 318.49359131 C-133.31569748 318.49498367 -148.62281557 318.48459206 -163.92995095 318.44501358 C-170.08345411 318.43010112 -176.23671337 318.43033484 -182.39022017 318.44249141 C-186.22563426 318.44721314 -190.06095567 318.43966553 -193.89635468 318.42894745 C-195.6696174 318.42654782 -197.44289583 318.42925354 -199.21614075 318.43755531 C-218.313822 318.52158716 -218.313822 318.52158716 -226.86352539 312.93139648 C-233.73808921 305.74435249 -235.35139354 299.202296 -235.24171448 289.4360199 C-235.24880886 288.29466349 -235.25590325 287.15330709 -235.26321262 285.97736412 C-235.28075895 282.16799378 -235.26270336 278.35964824 -235.24462891 274.55029297 C-235.24701165 271.81319391 -235.25686262 269.07613285 -235.26631165 266.33905029 C-235.28465381 259.68595451 -235.27619928 253.03315318 -235.25822342 246.38006669 C-235.24417699 240.97176657 -235.240309 235.56354618 -235.2436657 230.15522957 C-235.24414314 229.38443297 -235.24462058 228.61363638 -235.24511249 227.81948232 C-235.24613886 226.25345895 -235.24719422 224.68743561 -235.24827825 223.12141228 C-235.25683824 209.28596086 -235.24019255 195.45065128 -235.21044922 181.61523438 C-235.1816079 168.19915816 -235.17453182 154.78328622 -235.18994141 141.3671875 C-235.2067124 126.74584885 -235.21072906 112.1246071 -235.19323105 97.50326592 C-235.19138672 95.9434265 -235.18955199 94.38358707 -235.18772697 92.82374763 C-235.18681488 92.05634146 -235.18590279 91.28893528 -235.18496307 90.49827437 C-235.17936368 85.09777027 -235.18265921 79.69731358 -235.18927193 74.29681206 C-235.19701308 67.71359993 -235.19022435 61.13058869 -235.16509689 54.54741698 C-235.15262016 51.19032286 -235.14858828 47.83380093 -235.15763855 44.47665596 C-235.16632693 40.83403865 -235.15038548 37.19233072 -235.12818909 33.54978943 C-235.13642985 32.49365666 -235.14467062 31.4375239 -235.15316111 30.34938711 C-235.07088227 23.03400862 -233.7743622 17.80666673 -228.93774414 12.06811523 C-220.22332714 5.01754874 -213.71996254 4.64048275 -202.61352539 5.05639648 C-202.57227539 4.06639648 -202.53102539 3.07639648 -202.48852539 2.05639648 C-201.66933432 -3.48717048 -198.40725193 -7.83152947 -193.98754883 -11.17285156 C-188.64746771 -14.75254826 -183.12850192 -16.71165532 -176.98852539 -18.50610352 C-175.9857959 -18.80347412 -174.98306641 -19.10084473 -173.94995117 -19.40722656 C-115.43685447 -36.21885944 -53.61254626 -28.01587206 0 0 Z " fill="#21267D" transform="translate(250.613525390625,106.943603515625)"/>
<path d="M0 0 C0.88229279 0.00149048 1.76458557 0.00298096 2.6736145 0.0045166 C16.14788636 0.0454259 29.25982813 0.61919016 42.5 3.3125 C43.58716309 3.52132812 43.58716309 3.52132812 44.69628906 3.734375 C64.3293756 7.57737155 95.90562631 14.71812631 110.5 29.3125 C110.59807612 32.47276775 110.62990232 35.61119997 110.62025452 38.77186584 C110.62153615 40.2799783 110.62153615 40.2799783 110.62284368 41.81855768 C110.62450152 45.215075 110.61897217 48.61154381 110.61352539 52.00805664 C110.61324356 54.43181863 110.61340117 56.85558071 110.6139679 59.27934265 C110.61419621 64.51170897 110.61134486 69.74406415 110.60573006 74.97642708 C110.59761718 82.5416279 110.59500006 90.1068227 110.59374207 97.6720274 C110.59155121 109.94484785 110.58489022 122.21766167 110.57543945 134.49047852 C110.5662662 146.41528286 110.55918494 158.34008542 110.55493164 170.26489258 C110.55466892 170.99943077 110.55440619 171.73396896 110.55413551 172.49076588 C110.55283051 176.17557676 110.55156679 179.86038766 110.55032361 183.54519856 C110.53994995 214.13430379 110.52225661 244.72340098 110.5 275.3125 C109.65801103 274.92824592 109.65801103 274.92824592 108.79901218 274.53622913 C106.21124004 273.35739495 103.62139012 272.18319354 101.03149414 271.0090332 C100.14884132 270.60612312 99.26618851 270.20321304 98.35678864 269.78809357 C90.37098118 266.17441315 82.26990123 263.19996721 73.9375 260.5 C72.87639511 260.15172653 72.87639511 260.15172653 71.79385376 259.79641724 C60.82973259 256.20702682 49.9359277 252.98341903 38.5 251.3125 C37.79456055 251.20115723 37.08912109 251.08981445 36.36230469 250.97509766 C7.12866966 246.54754264 -23.920247 248.09309625 -52.47119141 255.27978516 C-63.88933459 258.10681892 -63.88933459 258.10681892 -69.5 257.3125 C-71.87664144 255.20841634 -73.28778524 253.48101632 -73.86480045 250.30380237 C-74.01767491 247.78715505 -74.03290403 245.29991417 -74.00793457 242.77867126 C-74.01729451 241.33091894 -74.01729451 241.33091894 -74.02684355 239.85391909 C-74.04280894 236.61712721 -74.03015512 233.38108468 -74.01757812 230.14428711 C-74.02299761 227.82494161 -74.03011929 225.50559955 -74.03881836 223.18626404 C-74.05707406 216.88475398 -74.049975 210.58350548 -74.03730202 204.28199077 C-74.02718729 197.69348483 -74.03656334 191.10500155 -74.04284668 184.51649475 C-74.05139361 172.74360547 -74.03815062 160.9708264 -74.01780933 149.19795621 C-73.99993419 138.52180436 -74.00304598 127.84582645 -74.02148438 117.16967773 C-74.04288562 104.77218008 -74.05086143 92.37479334 -74.03903532 79.97727972 C-74.0327915 73.41442122 -74.03198935 66.85168257 -74.04518127 60.28883171 C-74.05671383 54.12050095 -74.04876122 47.95249956 -74.02560425 41.78420448 C-74.02030354 39.51701785 -74.02185405 37.24980362 -74.03065491 34.98262787 C-74.04153979 31.89448942 -74.02793174 28.8074152 -74.00793457 25.71934509 C-74.01685746 24.81614326 -74.02578034 23.91294143 -74.03497362 22.98236984 C-73.95856598 16.92482172 -73.95856598 16.92482172 -71.61600494 13.79680729 C-64.39901844 8.73433062 -54.63760644 7.17267106 -46.1875 5.1875 C-45.16205078 4.93613281 -44.13660156 4.68476562 -43.08007812 4.42578125 C-28.66030446 0.98950331 -14.75731992 -0.06155728 0 0 Z " fill="#E5F2FE" transform="translate(137.5,95.6875)"/>
<path d="M0 0 C0.78955078 0.14453613 1.57910156 0.28907227 2.39257812 0.43798828 C10.82608139 2.00495401 18.93900986 4.11738378 27 7.0625 C28.01586182 7.43048706 28.01586182 7.43048706 29.05224609 7.8059082 C32.53316284 9.15238558 33.87100908 9.80651363 36 13 C36.25299966 14.88008106 36.25299966 14.88008106 36.25726891 17.04087639 C36.2637178 17.8658474 36.27016669 18.6908184 36.276811 19.54078853 C36.2721652 20.89996054 36.2721652 20.89996054 36.26742554 22.28659058 C36.27195665 23.24934438 36.27648776 24.21209818 36.28115618 25.20402634 C36.29386171 28.44449672 36.29217585 31.68480036 36.29052734 34.92529297 C36.29650874 37.24271869 36.30331339 39.5601424 36.31088257 41.87756348 C36.3285891 48.18331618 36.3332399 54.48901464 36.33451414 60.79478979 C36.33641031 66.05342947 36.34376457 71.31205643 36.35085833 76.57069123 C36.36622583 88.26536808 36.37219466 99.96001842 36.37084763 111.65470456 C36.37076772 112.35662569 36.3706878 113.05854681 36.37060547 113.78173828 C36.37052371 114.48451531 36.37044195 115.18729234 36.37035771 115.91136564 C36.36954474 127.30187353 36.38868414 138.6922492 36.4168822 150.08271883 C36.4455995 161.77508779 36.45905672 173.46738617 36.45769465 185.15979111 C36.45718392 191.72552346 36.46292817 198.29110622 36.48405075 204.85680771 C36.50337011 211.03083319 36.5036007 217.20456544 36.48901749 223.37860107 C36.48692047 225.64698844 36.49168308 227.91539385 36.5037384 230.18375015 C36.51911023 233.27599555 36.50993571 236.36721968 36.49447632 239.45944214 C36.50476344 240.36109537 36.51505057 241.2627486 36.52564943 242.19172466 C36.47975132 246.33454725 36.33373274 248.46381609 34.09726906 252.05697823 C31.71568769 254.26340207 30.88366804 254.65634258 27.6875 254.5625 C22.67801666 254.31493832 18.11051438 253.03841266 13.31225586 251.64160156 C7.68276908 250.05567361 2.03883733 249.11872323 -3.75 248.3125 C-4.60053955 248.19350342 -5.4510791 248.07450684 -6.32739258 247.9519043 C-8.88262329 247.61017206 -11.4391949 247.29699307 -14 247 C-15.24136719 246.85534302 -15.24136719 246.85534302 -16.5078125 246.70776367 C-47.79811507 243.45716636 -79.02061289 246.53659841 -109 256 C-109.75958008 256.23976563 -110.51916016 256.47953125 -111.30175781 256.7265625 C-120.5025046 259.69165487 -129.33603515 263.32980904 -138.11425781 267.37255859 C-138.82549805 267.69949707 -139.53673828 268.02643555 -140.26953125 268.36328125 C-140.89448486 268.65501221 -141.51943848 268.94674316 -142.16333008 269.24731445 C-144.08617848 270.03531679 -145.98218587 270.51518173 -148 271 C-148.22810875 239.89071747 -148.40508679 208.781656 -148.51065329 177.67173576 C-148.52316042 173.99925475 -148.53610363 170.32677541 -148.54931641 166.65429688 C-148.55193951 165.92317012 -148.55456261 165.19204336 -148.55726521 164.43876125 C-148.60078307 152.59911366 -148.67963046 140.75995143 -148.77152796 128.92059182 C-148.86503212 116.77295983 -148.92058511 104.62558208 -148.94088495 92.47760499 C-148.95460934 84.9808439 -148.99795598 77.48545458 -149.07916467 69.98911579 C-149.13825845 64.24153165 -149.14455533 58.49482707 -149.13107681 52.74699974 C-149.13383188 50.3886501 -149.15377756 48.03024938 -149.19205475 45.67220879 C-149.46761339 27.82367921 -149.46761339 27.82367921 -145.84519577 23.32240677 C-143.21946864 21.70388904 -140.95990033 20.82018606 -138 20 C-136.58505036 19.30767762 -135.18076715 18.59232981 -133.796875 17.83984375 C-132.45153364 17.19809106 -131.10249611 16.56403346 -129.75 15.9375 C-129.02039063 15.59807373 -128.29078125 15.25864746 -127.5390625 14.90893555 C-88.20586854 -3.09165398 -42.46252877 -8.22733446 0 0 Z " fill="#E5F2FE" transform="translate(412,99)"/>
<path d="M0 0 C9.63533027 -0.85689696 9.63533027 -0.85689696 13.5778017 1.82388306 C17.08837917 6.42714142 16.83215771 10.16660556 16.75517273 15.81787109 C16.7681543 17.47282624 16.7681543 17.47282624 16.78139812 19.16121483 C16.80302435 22.86579271 16.78167368 26.56887506 16.76049805 30.2734375 C16.7669897 32.92617014 16.77582418 35.57880112 16.78749084 38.23150635 C16.81032258 44.69301858 16.80083623 51.15409838 16.77998998 57.61560202 C16.76370904 62.86671174 16.75950564 68.1177034 16.76395607 73.36883545 C16.76458675 74.11606192 16.76521742 74.86328839 16.76586721 75.63315809 C16.76721326 77.15111179 16.76859283 78.66906547 16.77000556 80.18701911 C16.78194396 94.42254591 16.75787224 108.65783559 16.72098748 122.8933084 C16.69009423 135.10929482 16.68772322 147.32500821 16.70678711 159.54101562 C16.72889727 173.72539599 16.73504522 187.9096233 16.71446449 202.09401131 C16.71230154 203.6063957 16.71015244 205.11878012 16.70801735 206.63116455 C16.70695098 207.37529582 16.70588462 208.1194271 16.70478594 208.8861078 C16.69831517 214.1311924 16.70308371 219.37619825 16.71204185 224.62127686 C16.72257563 231.01294528 16.71508297 237.40429348 16.68458607 243.79590273 C16.66945293 247.05742939 16.6649819 250.31834639 16.67677689 253.57990265 C16.68815755 257.11450794 16.66889519 260.6476413 16.64164734 264.18212891 C16.65211883 265.21471014 16.66259032 266.24729137 16.67337912 267.31116295 C16.60808065 271.84144847 16.46677898 274.29492664 13.92219734 278.13853741 C10.22446068 280.49402462 7.97797312 280.61660117 3.60319519 280.60127258 C2.86796719 280.60554471 2.1327392 280.60981683 1.37523156 280.61421841 C-1.08355853 280.62244157 -3.54063522 280.59497715 -5.99926758 280.56762695 C-7.76352905 280.56621633 -9.52779346 280.56700875 -11.29205322 280.56983948 C-16.07905174 280.57127447 -20.86542424 280.54187127 -25.65227723 280.50696969 C-30.65574106 280.47572003 -35.65921914 280.47277654 -40.6627655 280.46684265 C-50.1365087 280.45130014 -59.60996352 280.41026607 -69.08357972 280.3600952 C-79.8694231 280.3042145 -90.65528023 280.27671843 -101.44123232 280.25161803 C-123.62765354 280.19935064 -145.81379845 280.11039356 -168 280 C-168 274.72 -168 269.44 -168 264 C-166.33091583 264.00079559 -164.66183167 264.00159119 -162.94216919 264.00241089 C-147.19884385 264.00601599 -131.45589169 263.97854254 -115.71267891 263.9197216 C-107.6192567 263.89027462 -99.52609618 263.87188404 -91.43261719 263.87988281 C-84.37502116 263.88682938 -77.31783046 263.87266307 -70.2603339 263.83356392 C-66.5262723 263.81360307 -62.79284641 263.80393022 -59.05875015 263.81957626 C-54.88121987 263.8366835 -50.70526183 263.80663547 -46.52783203 263.77294922 C-45.30143509 263.78517014 -44.07503815 263.79739105 -42.81147766 263.8099823 C-34.77362495 263.69348862 -29.34133156 262.03344802 -23 257 C-19.67876934 253.3381303 -18.80679434 250.21015077 -17.8125 245.5 C-17.00951915 242.21265853 -16.55451335 240.48560295 -13.98828125 238.23828125 C-12.41550004 237.28941325 -10.82792743 236.36463349 -9.2265625 235.46484375 C-4.52731142 232.3732312 -2.14888374 227.38240782 -1 222 C-0.89572958 219.02281176 -0.84519921 216.06845763 -0.84178162 213.09100342 C-0.83684364 212.18103709 -0.83190566 211.27107077 -0.82681805 210.33352971 C-0.81143436 207.27801906 -0.80308004 204.22252943 -0.79467773 201.16699219 C-0.7850999 198.97923599 -0.77508987 196.79148164 -0.76467896 194.60372925 C-0.7376136 188.6578866 -0.71661284 182.71203599 -0.69667697 176.76616573 C-0.6748275 170.55480941 -0.64743372 164.34347764 -0.62062073 158.13214111 C-0.57635746 147.70464142 -0.53552457 137.27713292 -0.49731445 126.84960938 C-0.45794903 116.109365 -0.41652029 105.36913184 -0.37231445 94.62890625 C-0.36822804 93.63581306 -0.36822804 93.63581306 -0.36405908 92.62265739 C-0.35037943 89.30127597 -0.33665698 85.97989473 -0.32291877 82.65851355 C-0.20907722 55.10569868 -0.1022429 27.55286018 0 0 Z " fill="#E3F0FD" transform="translate(464,128)"/>
<path d="M0 0 C0.00238835 1.13675423 0.00477671 2.27350845 0.00723743 3.44470978 C0.0660302 31.10357412 0.14191172 58.76235133 0.23571491 86.42111969 C0.2446665 89.08380623 0.25359386 91.74649283 0.26245117 94.40917969 C0.26465486 95.07099768 0.26685854 95.73281568 0.269129 96.41468877 C0.30228497 106.45906602 0.32665471 116.50343969 0.34643555 126.54785156 C0.36940835 138.20594346 0.40279851 149.863951 0.44870156 161.52197599 C0.47264328 167.69488496 0.49136591 173.86771033 0.49761391 180.04066467 C0.50366036 185.85188019 0.52364474 191.66288176 0.55427551 197.4740181 C0.56306271 199.60566854 0.56677691 201.73734692 0.56500816 203.86901474 C0.56335388 206.78291841 0.58006834 209.69617107 0.60127258 212.60998535 C0.59642501 213.45047314 0.59157743 214.29096093 0.58658296 215.15691805 C0.68637861 223.48585605 2.97289391 229.97289391 9 236 C10.175625 236.515625 11.35125 237.03125 12.5625 237.5625 C15.42434108 239.01200392 15.96333237 239.90916974 17.1953125 242.9609375 C17.84266272 245.22921189 18.44034967 247.51242251 18.98046875 249.80859375 C20.96262883 256.01328641 24.70811765 258.93220337 30.25779533 261.92757225 C35.49754802 263.97674686 40.85613752 263.69840194 46.41430664 263.65942383 C47.73235291 263.66990753 49.05039917 263.68039124 50.40838623 263.69119263 C53.99675681 263.71917982 57.58452639 263.71689605 61.17297292 263.70889878 C64.93265934 263.70576031 68.69215879 263.73084708 72.45176697 263.75285339 C79.55948614 263.79021312 86.66701401 263.80243658 93.7748217 263.8054778 C101.87170323 263.81017743 109.96839419 263.84312964 118.06519139 263.87837565 C134.71012253 263.95020355 151.35491875 263.98580777 168 264 C168 269.28 168 274.56 168 280 C144.60005036 280.11566838 121.20016941 280.2049337 97.79999161 280.25906086 C86.93524707 280.28485934 76.07068324 280.32004134 65.20605469 280.37719727 C55.73813056 280.42698183 46.27033729 280.45927905 36.80228591 280.47044247 C31.78742131 280.47696961 26.77293112 280.49234437 21.75818634 280.52865028 C17.04021464 280.56253159 12.32277235 280.57306891 7.60469055 280.56553841 C5.87122981 280.56691648 4.13775177 280.57689589 2.40439606 280.59602737 C0.04044758 280.62084389 -2.32149257 280.61494876 -4.68548584 280.60127258 C-5.37420517 280.61583679 -6.06292449 280.630401 -6.7725141 280.64540654 C-10.06803144 280.59373891 -11.79424887 280.15796534 -14.42457008 278.13853741 C-16.7526741 273.50053893 -16.55890405 269.30650936 -16.52139282 264.18212891 C-16.52904392 263.07882547 -16.53669501 261.97552204 -16.54457796 260.83878517 C-16.56524827 257.13451819 -16.55725214 253.43087063 -16.54931641 249.7265625 C-16.55800879 247.07385189 -16.56824509 244.42118703 -16.58029175 241.76849365 C-16.60579277 235.30708698 -16.60937242 228.8458465 -16.60469122 222.38439798 C-16.60112578 217.13330133 -16.60462216 211.88225516 -16.61314011 206.63116455 C-16.61433048 205.88393808 -16.61552086 205.13671161 -16.61674731 204.36684191 C-16.6191708 202.84888823 -16.62159906 201.33093456 -16.62403207 199.81298089 C-16.6457853 185.57752132 -16.64145671 171.34215651 -16.62926237 157.1066916 C-16.61892057 144.08021712 -16.6414433 131.05404161 -16.67945881 118.02762628 C-16.71818948 104.65371873 -16.73473245 91.27995271 -16.72721231 77.90598869 C-16.72338461 70.39680009 -16.72839876 62.88786605 -16.75664139 55.37872314 C-16.78043782 48.98704592 -16.78331459 42.59577999 -16.75906105 36.20409727 C-16.7472612 32.94245334 -16.74838144 29.68171984 -16.76906586 26.42009735 C-16.78987041 22.88531729 -16.77390959 19.35257607 -16.7484436 15.81787109 C-16.76319217 14.78528986 -16.77794074 13.75270863 -16.79313624 12.68883705 C-16.72067727 7.92602649 -16.53002665 5.6951202 -13.57822227 1.82388306 C-9.46829749 -0.9704405 -4.75661596 -0.42301921 0 0 Z " fill="#E3F0FD" transform="translate(48,128)"/>
<path d="M0 0 C0.8484549 -0.00358521 1.69690979 -0.00717041 2.57107544 -0.01086426 C35.71359761 -0.0861163 35.71359761 -0.0861163 49.75 5.3125 C52.04394751 7.72951336 52.68605665 8.93683284 53.25 12.25 C52.75 15.3125 52.75 15.3125 50.75 18.1875 C45.38252069 21.98946451 40.11941967 20.41490138 34 19.375 C32.64648438 19.11396484 32.64648438 19.11396484 31.265625 18.84765625 C6.95540071 15.14709989 -19.32179793 15.849875 -43.25 21.3125 C-44.17425781 21.52100586 -45.09851563 21.72951172 -46.05078125 21.94433594 C-54.24336091 23.82633763 -62.29764609 25.89099154 -70.22753906 28.69311523 C-73.42380388 29.67198098 -75.95586697 29.82922675 -79.25 29.3125 C-82.16424645 26.77187489 -83.08863896 25.08703301 -83.875 21.3125 C-83.14578995 17.81229175 -81.86283633 16.68552122 -79.109375 14.51220703 C-75.79270256 12.37222169 -72.2055449 11.33969861 -68.4375 10.25 C-67.6007373 9.99887451 -66.76397461 9.74774902 -65.90185547 9.48901367 C-57.75183183 7.08556477 -49.58025208 4.98526385 -41.25 3.3125 C-40.54439941 3.16151855 -39.83879883 3.01053711 -39.11181641 2.85498047 C-26.15327417 0.17180677 -13.17867366 0.02241245 0 0 Z " fill="#4DA6FF" transform="translate(371.25,178.6875)"/>
<path d="M0 0 C0.87366211 0.15484863 1.74732422 0.30969727 2.64746094 0.46923828 C11.63905628 2.11617755 20.27769931 4.580574 28.9375 7.5 C29.79730469 7.78464111 30.65710938 8.06928223 31.54296875 8.36254883 C39.04260144 11.01388067 39.04260144 11.01388067 41 15 C41.68234041 19.0087499 41.3158333 20.52115596 39.0625 23.9375 C34.78631937 26.81737675 31.90607313 25.94675149 27 25 C24.05419658 24.19629602 21.19228693 23.19961143 18.3125 22.1875 C8.52031378 18.92897963 -1.32883787 16.98425495 -11.51220703 15.390625 C-13.66746905 15.05221291 -15.81552425 14.68619798 -17.96484375 14.3125 C-37.46389043 11.31584821 -57.43059156 12.44618289 -76.85546875 15.34375 C-81.64515297 16.01590787 -86.16448414 16.27496071 -91 16 C-94.05174034 13.4692885 -94.82214839 11.85368774 -95.625 8 C-94.90219713 4.53054623 -93.65021869 3.28354818 -90.90820312 1.11914062 C-87.3374934 -0.97504225 -83.49296793 -1.28598765 -79.4375 -1.75 C-78.61958984 -1.86214844 -77.80167969 -1.97429687 -76.95898438 -2.08984375 C-51.06270162 -5.4946141 -25.6682961 -4.62193083 0 0 Z " fill="#4DA6FF" transform="translate(183,267)"/>
<path d="M0 0 C0.6897995 0.00060425 1.379599 0.0012085 2.09030151 0.00183105 C12.87308157 0.02744744 23.40577922 0.47762668 34.0625 2.1875 C34.89442871 2.31108887 35.72635742 2.43467773 36.58349609 2.56201172 C52.33992751 4.93193987 70.15424333 7.99466756 84.0625 16.1875 C86.0625 19.1875 86.0625 19.1875 86 22.625 C85.0625 26.1875 85.0625 26.1875 82.9375 28.6875 C79.23962366 30.61682679 76.91201318 30.34457911 73.0625 29.1875 C71.53768961 28.61464306 70.01733699 28.02986836 68.5 27.4375 C37.49831553 15.82242748 -4.70259541 11.80642481 -36.9375 20.1875 C-38.45446689 20.32421105 -39.97719915 20.40658019 -41.5 20.4375 C-42.26441406 20.46328125 -43.02882813 20.4890625 -43.81640625 20.515625 C-46.51442107 20.09825254 -47.32116489 19.35898972 -48.9375 17.1875 C-49.625 15.3203125 -49.625 15.3203125 -49.9375 13.3125 C-50.06125 12.65507812 -50.185 11.99765625 -50.3125 11.3203125 C-49.66491349 7.63716425 -47.88514292 6.39456596 -44.9375 4.1875 C-41.56163125 3.18874407 -38.1819554 2.80507946 -34.6875 2.4375 C-33.33205078 2.26927734 -33.33205078 2.26927734 -31.94921875 2.09765625 C-30.13761504 1.87609321 -28.32445882 1.66687883 -26.51000977 1.4699707 C-24.93284913 1.29679287 -23.35712948 1.10870863 -21.78491211 0.89526367 C-14.54718414 -0.05615486 -7.28907418 -0.01177785 0 0 Z " fill="#4CA6FF" transform="translate(137.9375,220.8125)"/>
<path d="M0 0 C0.81436523 0.16016602 1.62873047 0.32033203 2.46777344 0.48535156 C10.59597192 2.10686003 18.46491123 4.33699185 26.3125 7 C27.0247876 7.23702637 27.7370752 7.47405273 28.47094727 7.71826172 C32.50365835 9.15604059 35.35177446 10.59132682 38 14 C38.63656938 17.73984509 38.25584708 19.50962644 36.5 22.875 C33.68010731 25.27190878 31.98207726 25.66169303 28.30859375 25.42578125 C24.75144019 24.76972416 21.51962788 23.4519982 18.15625 22.14453125 C5.91516601 17.70562332 -7.13524693 15.68309724 -20 14 C-21.08716309 13.85316772 -21.08716309 13.85316772 -22.19628906 13.70336914 C-30.43683551 12.72769819 -38.71484325 12.80363992 -47 12.8125 C-47.77569336 12.81210724 -48.55138672 12.81171448 -49.35058594 12.81130981 C-67.92018406 12.4877265 -67.92018406 12.4877265 -86 16 C-89.49159049 16.25393385 -92.1251039 16.36837731 -95.375 15 C-97.48931509 12.39776605 -97.97914351 10.31831399 -98.2109375 7 C-98 5 -98 5 -96.1875 2.125 C-74.14082536 -12.57278309 -24.16553642 -4.96934956 0 0 Z " fill="#4CA6FF" transform="translate(186,183)"/>
<path d="M0 0 C1.40585861 -0.00855011 1.40585861 -0.00855011 2.84011841 -0.01727295 C4.81495052 -0.02665788 6.78979783 -0.03323078 8.76464844 -0.03710938 C11.71579016 -0.0467379 14.66621077 -0.07779264 17.6171875 -0.109375 C27.16273169 -0.16331479 36.49693006 0.153503 45.953125 1.53125 C46.76748016 1.64797058 47.58183533 1.76469116 48.42086792 1.88494873 C53.03335009 2.63791021 56.84624172 3.71376558 60.8828125 6.203125 C62.8828125 9.203125 62.8828125 9.203125 62.8203125 12.640625 C61.8828125 16.203125 61.8828125 16.203125 59.8828125 18.703125 C55.66747903 20.81079173 52.34312273 20.03277874 47.8828125 19.203125 C37.00141827 17.21041054 26.42231082 16.89250569 15.38891602 16.94238281 C12.58522723 16.95306816 9.78218463 16.94244818 6.97851562 16.9296875 C-9.42454302 16.9138825 -24.69803244 18.4471563 -40.6171875 22.640625 C-41.80054688 22.94033203 -42.98390625 23.24003906 -44.203125 23.54882812 C-49.97806688 25.03114895 -55.64979135 26.61100502 -61.24462891 28.67822266 C-64.47055225 29.58249061 -66.96277502 29.14944874 -70.1171875 28.203125 C-72.66797708 25.98146956 -73.05051421 24.59483057 -73.6171875 21.265625 C-72.93291326 17.07444528 -71.35050632 15.91741106 -68.1171875 13.203125 C-65.40306042 12.0127697 -62.93640166 11.09352546 -60.1171875 10.265625 C-59.31482666 10.02110596 -58.51246582 9.77658691 -57.68579102 9.5246582 C-38.94329359 4.0539599 -19.55770949 0.09554151 0 0 Z " fill="#4DA6FF" transform="translate(361.1171875,136.796875)"/>
<path d="M0 0 C1.94120942 3.03841475 2.01669039 4.70245888 1.4375 8.25 C0.1875 11.125 0.1875 11.125 -2.5625 13.25 C-9.34277193 14.25717669 -15.98495442 13.15061698 -22.6340332 11.78393555 C-51.0790907 6.59766287 -83.19518201 9.87624064 -110.58203125 18.875 C-111.43240967 19.1536792 -112.28278809 19.4323584 -113.15893555 19.71948242 C-114.79746358 20.2657639 -116.43094606 20.82751873 -118.05786133 21.4074707 C-122.92312763 23.05967671 -126.43659767 23.58690837 -131.5625 22.25 C-134.35862568 19.27911646 -134.57039609 17.70797334 -134.5 13.625 C-133.41001724 9.70106207 -132.94583007 9.2919456 -129.5625 7.25 C-98.06966769 -5.41634794 -30.50766364 -20.83450199 0 0 Z " fill="#4DA6FF" transform="translate(422.5625,269.75)"/>
<path d="M0 0 C0.98044281 -0.01243744 1.96088562 -0.02487488 2.97103882 -0.03768921 C24.5034422 -0.25795597 44.81030916 0.02483953 65.80078125 5.2734375 C67.28344249 5.61248244 68.7664769 5.94990258 70.25 6.28515625 C76.84490535 7.89152066 83.23464992 10.03159661 89.61328125 12.3359375 C90.30260742 12.58142334 90.99193359 12.82690918 91.70214844 13.07983398 C95.24496264 14.41712538 96.6411242 15.03395193 98.80078125 18.2734375 C99.40624963 22.25222968 99.09923539 23.82094251 96.86328125 27.2109375 C93.15751416 29.70665819 91.69353201 29.66646729 87.4296875 28.921875 C83.35173668 27.91602086 79.36675482 26.66193252 75.3671875 25.3828125 C56.05083682 19.37422149 36.91522582 16.75208358 16.70288086 16.88232422 C13.73700133 16.89844446 10.77248002 16.88235103 7.80664062 16.86328125 C-2.14233537 16.85481939 -11.67661862 17.28255115 -21.43946838 19.31314087 C-25.66879323 20.17214202 -29.01170616 20.41048247 -33.19921875 19.2734375 C-35.63671875 17.1484375 -35.63671875 17.1484375 -37.19921875 14.2734375 C-37.14157123 10.92988156 -37.01005146 8.48821232 -35.125 5.6640625 C-32.19470526 3.54806874 -28.94139703 3.20922525 -25.44921875 2.6484375 C-24.75828125 2.52726563 -24.06734375 2.40609375 -23.35546875 2.28125 C-21.30551539 1.92674679 -19.25537263 1.59015226 -17.19921875 1.2734375 C-15.65609009 1.01433594 -15.65609009 1.01433594 -14.08178711 0.75 C-9.37276006 0.17199454 -4.74013545 0.05506445 0 0 Z " fill="#4DA6FF" transform="translate(125.19921875,136.7265625)"/>
<path d="M0 0 C2.41801993 3.62702989 2.20120778 5.00610079 1.52734375 9.125 C1 11 1 11 -0.5625 13 C-5.90949257 15.19363798 -11.86607893 13.94462734 -17.39038086 12.93212891 C-51.5602274 6.83590591 -89.40817592 10.64675268 -121.65576172 23.2265625 C-124.86947725 24.28686773 -126.86809077 24.29859651 -130 23 C-132.4375 20.875 -132.4375 20.875 -134 18 C-133.9430294 14.6957053 -133.85884499 12.23321332 -131.93359375 9.46875 C-128.97745549 7.22327933 -125.61881338 6.24608765 -122.125 5.125 C-121.33125977 4.8674292 -120.53751953 4.6098584 -119.71972656 4.34448242 C-110.26861944 1.35445233 -100.71318594 -1.03191029 -91 -3 C-90.18740723 -3.16661133 -89.37481445 -3.33322266 -88.53759766 -3.50488281 C-65.60527601 -7.96663965 -20.84686779 -12.87155275 0 0 Z " fill="#4CA6FF" transform="translate(422,227)"/>
<path d="M0 0 C1.1936618 -0.00018127 1.1936618 -0.00018127 2.41143799 -0.00036621 C21.77659145 0.04118266 40.39556053 2.70689493 58.9375 8.375 C58.6192221 11.31907058 58.40251048 12.92461785 56.23863602 15.02042103 C53.4018461 16.69031622 51.65032468 16.74497984 48.36932373 16.73576355 C47.23632843 16.73988754 46.10333313 16.74401154 44.93600464 16.7482605 C43.69738678 16.73747467 42.45876892 16.72668884 41.18261719 16.71557617 C39.22127335 16.71623329 39.22127335 16.71623329 37.2203064 16.71690369 C33.63788908 16.71776439 30.05577314 16.70012678 26.47342587 16.67918181 C22.72849493 16.66042737 18.98355708 16.65866555 15.23858643 16.65510559 C8.14837635 16.64578149 1.05830506 16.62116281 -6.0318439 16.59105712 C-14.10431487 16.55752444 -22.17679246 16.54102996 -30.24931574 16.52597082 C-46.85379173 16.49461353 -63.45812816 16.441846 -80.0625 16.375 C-76.37194149 13.44667714 -72.63202612 11.94989114 -68.1875 10.5 C-67.40375 10.2431543 -66.62 9.98630859 -65.8125 9.72167969 C-59.62480035 7.75529081 -53.38349108 6.1035223 -47.0625 4.625 C-46.23508301 4.42664551 -45.40766602 4.22829102 -44.55517578 4.02392578 C-29.90680807 0.75162655 -14.96410763 -0.03545157 0 0 Z " fill="#49A3FD" transform="translate(373.0625,359.625)"/>
<path d="M0 0 C0 0.33 0 0.66 0 1 C-17.53267186 1.11676255 -35.06522252 1.20495325 -52.59819412 1.25906086 C-60.73893474 1.28485092 -68.87943389 1.32001643 -77.02001953 1.37719727 C-84.114747 1.42700809 -91.20929961 1.45928519 -98.30419707 1.47044247 C-102.06156161 1.47696531 -105.81842588 1.49231142 -109.57563019 1.52865028 C-113.76842002 1.56887372 -117.96033824 1.56995095 -122.15332031 1.56762695 C-124.02527321 1.59459152 -124.02527321 1.59459152 -125.93504333 1.62210083 C-127.07645279 1.61522751 -128.21786224 1.60835419 -129.39385986 1.60127258 C-130.38570911 1.60588155 -131.37755836 1.61049051 -132.39946365 1.61523914 C-136.01296217 0.76035175 -137.07544033 -0.90841426 -139 -4 C-139 -4.99 -139 -5.98 -139 -7 C-94.23045676 -20.35695099 -43.11634914 -18.70306124 0 0 Z " fill="#49A3FD" transform="translate(219,375)"/>
<path d="M0 0 C60.72 0 121.44 0 184 0 C184 2.64 184 5.28 184 8 C160.60006013 8.11672218 137.2001638 8.20493371 113.79999161 8.25906086 C102.93524707 8.28485934 92.07068324 8.32004134 81.20605469 8.37719727 C71.73813056 8.42698183 62.27033729 8.45927905 52.80228591 8.47044247 C47.78742131 8.47696961 42.77293112 8.49234437 37.75818634 8.52865028 C33.04021464 8.56253159 28.32277235 8.57306891 23.60469055 8.56553841 C21.87122981 8.56691648 20.13775177 8.57689589 18.40439606 8.59602737 C16.04044758 8.62084389 13.67850743 8.61494876 11.31451416 8.60127258 C10.62579483 8.61583679 9.93707551 8.630401 9.2274859 8.64540654 C5.58023395 8.58822437 4.2188358 8.2092994 1.54284286 5.64992046 C0 3 0 3 0 0 Z " fill="#4AA4FE" transform="translate(32,400)"/>
<path d="M0 0 C60.72 0 121.44 0 184 0 C183 5 183 5 181.39228439 6.78995228 C178.06800803 8.47141333 175.445126 8.3685822 171.72344971 8.36076355 C170.98907614 8.36332682 170.25470256 8.3658901 169.49807525 8.36853105 C167.03657962 8.37347368 164.57569696 8.35696856 162.11425781 8.34057617 C160.35014358 8.33973 158.58602829 8.34020485 156.82191467 8.34190369 C152.03088969 8.34276546 147.24008941 8.32511026 142.44911671 8.30418181 C137.44295703 8.28544532 132.43679236 8.28366696 127.43060303 8.28010559 C117.94983204 8.27077623 108.46916466 8.24615036 98.98843932 8.21605712 C88.19533797 8.18254087 77.40223171 8.16603408 66.60909128 8.15097082 C44.40600299 8.1196016 22.20300802 8.06682375 0 8 C0 5.36 0 2.72 0 0 Z " fill="#4AA4FE" transform="translate(296,400)"/>
</svg>
